# xmcd
#
# Track frame offsets:
#	150
#	15738
#	31177
#	43950
#	60396
#	77194
#	90481
#	104513
#	117555
#	129622
#	145729
#	161184
#	175148
#	193280
#	206583
#	224158
#	240904
#	254614
#	268162
#
# Disc length: 3740 seconds
#
# Revision: 1
# Processed by: cddbd v1.5.2PL0 Copyright (c) Steve Scherf et al.
# Submitted via: audiograbber 1.83.01
#
DISCID=210e9a13
DTITLE=Various Artist - Hott Country 168
DYEAR=2010
DGENRE=Country
TTITLE0=Lady Antebellum - American Honey
TTITLE1=Aaron Lines - I Haven't Heard You Cry
TTITLE2=Easton Corbin - Little More Country Than That
TTITLE3=George Canyon - I Believe In Angels
TTITLE4=Kenny Chesney - Ain't Back Yet ( SIngle Edit )
TTITLE5=Jewel - Stay Here Forever
TTITLE6=George Strait - I Gotta Get You
TTITLE7=Luke Bryan - Rain Is A Good Thing
TTITLE8=Marlee Scott - 5 O'Clock Dance
TTITLE9=Jonathan Singleton and The Grove - Look Who's Back In Love
TTITLE10=Jason Greeley - Goodbye Jersey
TTITLE11=Hey Romeo - Searchin' For You
TTITLE12=Craig Morgan - This AIn't Nothin'
TTITLE13=Perry Band - Hip To My Heart
TTITLE14=Terri Clark - A Million Ways To Run ( Radio Edit )
TTITLE15=Martina McBride - Wrong Baby Wrong
TTITLE16=Jack Ingram - Free
TTITLE17=Margaret Durante - Use Somebody
TTITLE18=Anne Murray - Tennessee Waltz ( 1978 )
EXTD=Feburary 2010
EXTT0=
EXTT1=
EXTT2=
EXTT3=
EXTT4=
EXTT5=
EXTT6=
EXTT7=
EXTT8=
EXTT9=
EXTT10=
EXTT11=
EXTT12=
EXTT13=
EXTT14=
EXTT15=
EXTT16=
EXTT17=
EXTT18=
PLAYORDER=
